<svg xmlns="http://www.w3.org/2000/svg" style="display: none;"><symbol id="lips" viewBox="0 0 512.001 512.001"><title>lips</title><path d="M511.853,248.179c-0.538-2.672-2.489-4.803-5.047-5.627c-0.178-0.06-0.359-0.113-0.543-0.16 c-0.057-0.014-0.11-0.037-0.167-0.049l-3.637-0.785c-34.896-8.885-70.959-34.861-85.847-46.47 c-1.54-1.201-2.853-2.248-3.916-3.107c-53.856-43.532-86.623-59.947-113.126-56.663c-2.758,0.342-5.441,0.904-8.053,1.69 c-11.318,3.404-21.303,11-30.344,23.036c-0.724,0.964-1.433,1.962-2.104,2.965c-0.946,1.411-2.312,1.622-3.042,1.622 c-0.73,0-2.094-0.211-3.043-1.624c-0.667-0.994-1.365-1.977-2.076-2.925c-0.009-0.013-0.018-0.026-0.028-0.039 c-11.084-14.756-23.587-22.836-38.225-24.702c-25.549-3.263-58.033,12.565-108.641,52.905c-3.233,2.576-3.764,7.285-1.188,10.518 c2.577,3.232,7.286,3.764,10.518,1.188c46.513-37.074,76.557-52.423,97.418-49.761c10.559,1.346,19.504,7.334,28.147,18.842 c0.562,0.75,1.116,1.53,1.645,2.317c3.249,4.844,8.535,7.858,14.31,8.216c0.385,0.024,0.772,0.036,1.161,0.036 c0.001,0,0.001,0,0.001,0c1.167,0,2.318-0.108,3.441-0.319c0.749-0.14,1.486-0.326,2.206-0.554c0.36-0.114,0.717-0.24,1.069-0.375 c3.518-1.358,6.591-3.775,8.759-7.005c0.525-0.785,1.078-1.563,1.641-2.313c8.675-11.55,17.658-17.543,28.269-18.859 c21.729-2.694,52.191,13.291,101.873,53.45c1.471,1.189,2.929,2.343,4.38,3.482c0.379,0.297,0.757,0.592,1.134,0.886 c1.297,1.009,2.586,2.001,3.865,2.97c0.155,0.118,0.312,0.24,0.468,0.357c1.413,1.067,2.813,2.104,4.205,3.123 c0.358,0.262,0.713,0.52,1.07,0.779c1.183,0.86,2.358,1.703,3.525,2.529c0.235,0.166,0.472,0.337,0.706,0.502 c1.357,0.955,2.7,1.885,4.033,2.795c0.325,0.222,0.648,0.439,0.972,0.659c1.106,0.749,2.203,1.484,3.292,2.202 c0.281,0.185,0.563,0.374,0.843,0.558c1.297,0.85,2.58,1.679,3.851,2.487c0.284,0.181,0.565,0.356,0.848,0.534 c1.054,0.665,2.098,1.315,3.133,1.952c0.301,0.185,0.604,0.373,0.904,0.556c1.236,0.754,2.46,1.49,3.669,2.204 c0.229,0.135,0.453,0.264,0.68,0.398c1.023,0.6,2.035,1.186,3.037,1.758c0.308,0.176,0.616,0.352,0.922,0.525 c1.173,0.664,2.336,1.314,3.48,1.941c0.15,0.082,0.296,0.16,0.445,0.241c1.02,0.556,2.027,1.096,3.023,1.623 c0.3,0.159,0.599,0.317,0.897,0.473c1.107,0.58,2.205,1.15,3.281,1.695c0.046,0.023,0.091,0.045,0.137,0.068 c1.043,0.527,2.066,1.034,3.078,1.529c0.29,0.142,0.578,0.282,0.866,0.421c0.921,0.446,1.83,0.881,2.724,1.3 c0.126,0.059,0.255,0.122,0.381,0.18c0.995,0.465,1.969,0.909,2.93,1.343c0.111,0.05,0.229,0.106,0.34,0.156 c-30.873,2.236-80.86,3.133-137.99-6.323c-20.505-3.391-44.886,5.211-61.724,13.028c-0.002,0.001-0.142,0.066-0.144,0.067 c-9.236,4.247-19.828,4.246-29.031,0.015l-0.176-0.082c-16.838-7.817-41.217-16.423-61.724-13.028 c-57.204,9.469-107.199,8.565-138.055,6.322c11.919-5.35,26.596-13.126,43.109-24.324c3.422-2.32,4.314-6.974,1.995-10.395 c-2.321-3.421-6.975-4.316-10.396-1.994c-32.716,22.183-57.31,30.019-66.503,32.382l-3.834,0.828 c-0.059,0.013-0.113,0.036-0.171,0.05c-0.18,0.046-0.358,0.098-0.531,0.156c-2.578,0.825-4.557,2.961-5.086,5.653 c-0.515,2.625,0.394,5.286,2.359,7.027c0.374,0.342,0.785,0.645,1.222,0.905c0.051,0.034,0.103,0.07,0.161,0.108 c11.299,7.589,50.144,34.835,75.613,66.796c22.137,27.781,43.763,43.163,70.122,49.873c12.261,3.121,25.057,4.173,38.663,4.173 c13.041,0,26.827-0.966,41.597-2.001c8.353-0.585,16.986-1.19,26.134-1.678c9.149,0.487,17.782,1.092,26.135,1.678 c58.176,4.076,100.208,7.021,145.463-46.073c2.681-3.146,2.305-7.87-0.841-10.551c-3.147-2.682-7.871-2.305-10.552,0.841 c-40.354,47.343-75.237,44.899-133.024,40.85c-8.536-0.598-17.363-1.216-26.787-1.715c-0.263-0.014-0.526-0.014-0.789,0 c-9.423,0.499-18.249,1.117-26.785,1.715c-59.434,4.166-95.304,6.677-137.63-46.441c-16.794-21.075-38.924-40.072-56.006-53.268 c31.049,2.609,84.391,4.191,146.86-6.149c13.065-2.164,31.877,2.042,52.97,11.834l0.109,0.05c0.002,0.001,0.09,0.042,0.093,0.043 c6.605,3.036,13.694,4.555,20.784,4.555c7.09,0,14.18-1.518,20.784-4.555c0.003-0.001,0.091-0.042,0.093-0.043 c0.006-0.002,0.096-0.044,0.102-0.047c21.099-9.795,39.91-14.001,52.977-11.837c62.429,10.333,115.78,8.752,146.842,6.146 c-11.065,8.545-24.152,19.457-36.607,31.829c-2.932,2.913-2.948,7.652-0.035,10.585c1.464,1.473,3.387,2.21,5.31,2.21 c1.907,0,3.815-0.725,5.275-2.175c22.713-22.563,47.697-40.135,57.384-46.642c0.01-0.007,0.02-0.014,0.03-0.02 c1.327-0.747,2.404-1.892,3.071-3.278C511.948,251.498,512.185,249.827,511.853,248.179z"/></symbol><symbol id="proposal" viewBox="0 0 512 512"><title>proposal</title><g> <g> <path d="M507.657,327.699c-10.348-17.919-33.303-24.135-51.278-13.935c-3.268,1.611-45.001,22.121-79.376,36.585 c-3.839,1.616-5.642,6.038-4.026,9.877c1.615,3.839,6.036,5.641,9.877,4.026c36.049-15.17,79.971-36.849,80.41-37.066 c0.144-0.071,0.286-0.147,0.425-0.227c10.805-6.23,24.67-2.515,30.907,8.286c7.222,12.491-4.056,26.204-9.575,31.807 c-37.444,30.204-141.057,107.661-175.882,107.661c-38.602,0-146.925-22.948-173.416-28.689v-123.19 c52.526-7.721,80.353,1.963,138.665,22.284c17.739,6.181,37.836,13.185,62.265,20.994c3.64,1.588,13.742,7.274,9.893,20.126 c-2.341,7.812-9.889,15.277-20.935,13.205c-14.847-2.786-102.225-14.638-105.938-15.141c-4.128-0.556-7.927,2.333-8.486,6.461 c-0.559,4.127,2.333,7.927,6.461,8.486c0.905,0.123,90.708,12.302,105.181,15.019c2.246,0.421,4.428,0.62,6.535,0.62 c16.012,0,27.788-11.491,31.631-24.322c4.045-13.503-0.16-30.594-18.634-38.416c-0.027-0.012-0.052-0.024-0.079-0.035 c-0.025-0.01-0.047-0.022-0.071-0.031c-0.102-0.043-0.206-0.074-0.31-0.112c-0.103-0.038-0.202-0.082-0.308-0.116 c-24.4-7.794-44.503-14.8-62.24-20.981c-58.153-20.265-88.801-30.923-143.629-23.272v-6.305c0-4.165-3.377-7.542-7.542-7.542 h-22.618v-7.538c0-4.165-3.377-7.542-7.542-7.542H7.542c-4.165,0-7.542,3.377-7.542,7.542v165.869 c0,4.165,3.377,7.542,7.542,7.542s7.542-3.377,7.542-7.542V293.759h75.395v180.954H75.404v-7.538c0-4.165-3.377-7.542-7.542-7.542 s-7.542,3.377-7.542,7.542v7.538H7.542c-4.165,0-7.542,3.377-7.542,7.542s3.377,7.542,7.542,7.542H98.02 c4.165,0,7.542-3.377,7.542-7.542v-7.921h22.618c4.165,0,7.542-3.377,7.542-7.542v-5.329 c31.555,6.817,134.253,28.334,173.416,28.334c20.611,0,57.157-18.363,111.728-56.139c39.355-27.242,73.612-54.855,73.952-55.131 c0.209-0.168,0.409-0.348,0.598-0.538C511.802,361.584,516.377,342.783,507.657,327.699z M120.639,451.97c0,0.007,0,0.013,0,0.02 v7.261h-15.077v-0.001V308.838h15.077V451.97z"/> </g> </g><g> <g> <path d="M419.432,100.136v-50.28c0-15.248-12.406-27.653-27.653-27.653H230.886c-15.248,0-27.653,12.405-27.653,27.653v50.28 c0,0.964,0.188,1.883,0.518,2.73l9.415,56.493l-9.774,49.85c-0.003,0.015-0.006,0.031-0.009,0.047l-0.008,0.042 c-0.014,0.071-0.019,0.141-0.03,0.211c-0.028,0.169-0.057,0.338-0.074,0.511c-0.017,0.172-0.021,0.343-0.026,0.513 c-0.002,0.072-0.011,0.143-0.011,0.216v0.042c-0.001,0.017-0.001,0.033-0.001,0.049v40.132c0,15.248,12.405,27.653,27.653,27.653 h160.893c15.248,0,27.653-12.405,27.653-27.653v-40.153c0-0.021,0-0.041,0-0.062v-0.008c0-0.028-0.004-0.055-0.004-0.083 c-0.003-0.22-0.012-0.439-0.033-0.66c-0.021-0.204-0.053-0.403-0.089-0.601c-0.008-0.045-0.011-0.089-0.02-0.134l-0.003-0.013 c-0.003-0.017-0.007-0.034-0.01-0.052l-9.773-48.871l9.427-57.502C419.248,101.994,419.432,101.088,419.432,100.136z M404.348,250.972c0,6.931-5.638,12.57-12.569,12.57H230.886c-6.931,0-12.57-5.639-12.57-12.57v-32.681h186.032V250.972z M394.319,161c0.008,0.107,0.017,0.215,0.028,0.322c0.019,0.156,0.042,0.31,0.069,0.463c0.01,0.055,0.014,0.109,0.025,0.163 l8.251,41.26h-23.804c-2.779-28.909-23.763-52.567-51.322-59.358l19.267-19.266c2.946-2.946,2.946-7.72,0.001-10.666 l-10.057-10.058c-1.414-1.415-3.333-2.209-5.333-2.209l-40.222,0.001c-2,0-3.919,0.795-5.333,2.209l-10.056,10.057 c-2.945,2.946-2.945,7.72,0.001,10.666l19.268,19.266c-27.559,6.79-48.545,30.449-51.323,59.358H219.94l8.29-42.288 c0.01-0.052,0.013-0.104,0.023-0.155c0.027-0.156,0.05-0.312,0.068-0.471c0.012-0.106,0.02-0.211,0.027-0.316 c0.009-0.134,0.015-0.268,0.017-0.403c0.002-0.134-0.001-0.266-0.005-0.398c-0.004-0.107-0.01-0.214-0.019-0.321 c-0.013-0.157-0.031-0.312-0.054-0.467c-0.007-0.053-0.009-0.106-0.018-0.159l-9.928-59.571 c0.255-6.708,5.776-12.091,12.546-12.091H391.78c6.773,0,12.296,5.387,12.546,12.1l-9.932,60.582 c-0.009,0.055-0.011,0.108-0.019,0.162c-0.022,0.155-0.04,0.311-0.052,0.468c-0.009,0.107-0.014,0.214-0.018,0.32 c-0.005,0.134-0.007,0.267-0.005,0.402C394.303,160.736,394.31,160.868,394.319,161z M363.704,203.208H258.96 c3.234-26.032,25.479-46.25,52.372-46.25S360.47,177.176,363.704,203.208z M291.831,119.25l2.514-2.514l33.974-0.001l2.515,2.515 l-19.502,19.5L291.831,119.25z M404.349,74.519c-3.774-1.935-8.045-3.034-12.57-3.034H230.886c-4.525,0-8.795,1.099-12.57,3.034 V49.857c0-6.931,5.639-12.57,12.57-12.57h160.893c6.931,0,12.57,5.639,12.57,12.57V74.519z"/> </g> </g></symbol><symbol id="house" viewBox="0 0 539.077 539.077"><title>house</title><path d="M460.462,527.846H325.692c-6.208,0-11.231-5.023-11.231-11.231v-146h-89.846v146c0,6.208-5.023,11.231-11.231,11.231 H78.615c-6.208,0-11.231-5.023-11.231-11.231V292c0-6.208,5.023-11.231,11.231-11.231c6.208,0,11.231,5.023,11.231,11.231v213.385 h112.308v-146c0-6.208,5.023-11.231,11.231-11.231h112.308c6.208,0,11.231,5.023,11.231,11.231v146h112.308V303.231 c0-6.208,5.023-11.231,11.231-11.231c6.208,0,11.231,5.023,11.231,11.231v213.385 C471.692,522.823,466.669,527.846,460.462,527.846z M527.846,292c-2.873,0-5.747-1.097-7.94-3.29L269.538,38.343L19.171,288.71 c-4.387,4.387-11.494,4.387-15.881,0c-4.387-4.387-4.387-11.494,0-15.881L261.598,14.521c4.387-4.387,11.494-4.387,15.881,0 l258.308,258.308c4.387,4.387,4.387,11.494,0,15.881C533.593,290.903,530.72,292,527.846,292z M438,134.769 c-6.208,0-11.231-5.023-11.231-11.231V56.154h-67.385c-6.208,0-11.231-5.023-11.231-11.231s5.023-11.231,11.231-11.231H438 c6.208,0,11.231,5.023,11.231,11.231v78.615C449.231,129.746,444.208,134.769,438,134.769z"/></symbol><symbol id="question" viewBox="0 0 511.999 511.999"><title>question</title><g> <g> <path d="M363.788,53.894c-34.176,0-61.979,27.803-61.979,61.979c0,4.465,3.618,8.084,8.084,8.084c4.466,0,8.084-3.62,8.084-8.084 c0-25.26,20.55-45.81,45.81-45.81c25.26,0,45.81,20.55,45.81,45.81c0,25.26-20.55,45.81-45.81,45.81 c-4.466,0-8.084,3.62-8.084,8.084v35.929c0,4.465,3.618,8.084,8.084,8.084s8.084-3.62,8.084-8.084v-28.37 c30.371-3.973,53.895-30.018,53.895-61.454C425.767,81.698,397.964,53.894,363.788,53.894z"/> </g> </g><g> <g> <circle cx="363.788" cy="245.22" r="10.779"/> </g> </g><g> <g> <circle cx="105.094" cy="309.894" r="21.558"/> </g> </g><g> <g> <circle cx="169.767" cy="309.894" r="21.558"/> </g> </g><g> <g> <path d="M465.349,46.485C435.542,16.721,395.934,0.213,353.82,0.002c-42.211-0.179-82.251,16.335-112.657,46.591 c-11.93,11.872-21.748,25.238-29.284,39.643c-0.013,0-0.026-0.002-0.039-0.002h-0.041c-56.389,0.282-109.424,22.386-149.336,62.24 c-39.907,39.85-62.09,92.843-62.458,149.22c-0.371,56.728,21.569,110.26,61.777,150.731 c40.727,40.997,94.991,63.574,152.796,63.574h179.976c5.319,0,10.002-3.203,11.93-8.161c1.927-4.954,0.642-10.476-3.276-14.068 c-5.869-5.382-14.812-13.826-24.088-23.494c-8.598-8.964-9.183-22.94-1.358-32.508c30.764-37.62,47.784-85.081,47.995-133.738 c14.625-7.595,28.146-17.492,40.101-29.525c30.029-30.226,46.415-70.209,46.138-112.579 C511.72,115.824,495.153,76.246,465.349,46.485z M454.388,259.111c-27.356,27.535-63.802,42.699-102.627,42.699H230.759 c3.076-2.981,6.453-6.344,9.893-9.93c11.246-11.723,11.993-30.02,1.738-42.561c-16.858-20.615-27.562-45.638-30.994-71.906 c-0.524-4.01-3.958-6.997-8.002-6.997c-4.871,0-8.658,4.28-8.025,9.11c3.824,29.234,15.74,57.083,34.505,80.028 c5.084,6.218,4.702,15.304-0.889,21.133c-6.655,6.937-13.082,13.02-17.389,16.974c-3.574,3.282-4.982,8.438-3.219,12.958 c1.745,4.47,5.97,7.359,10.769,7.359H351.76c20.039,0,39.507-3.64,57.661-10.597c-1.794,42.346-17.318,83.309-44.175,116.153 c-12.995,15.89-12.047,39.077,2.206,53.936c6.67,6.953,13.165,13.285,18.536,18.361H214.577 c-53.466,0-103.656-20.883-141.326-58.8c-37.151-37.394-57.422-86.84-57.079-139.23c0.686-104.726,84.483-190.778,188.299-195.205 c-4.389,11.399-7.435,23.299-9.062,35.507c-0.642,4.826,3.154,9.104,8.023,9.104h0.009c4.032,0,7.465-2.97,7.998-6.966 c4.115-30.857,18.354-59.527,41.127-82.186c27.163-27.028,62.813-41.886,100.457-41.886c0.238,0,0.476,0.001,0.716,0.002 c77.838,0.389,141.578,64.028,142.087,141.862C496.077,196.065,481.36,231.962,454.388,259.111z"/> </g> </g></symbol><symbol id="mixer" viewBox="0 0 512 512"><title>mixer</title><path d="M509.491,96.358l-58.607-58.607C443.39,30.064,433.135,25.69,422.4,25.6H89.6c-10.735,0.09-20.99,4.464-28.484,12.151 L2.509,96.358C0.913,97.965,0.012,100.135,0,102.4v366.933c0,9.426,7.641,17.067,17.067,17.067h477.867 c9.426,0,17.067-7.641,17.067-17.067V102.4C511.988,100.135,511.087,97.965,509.491,96.358z M73.182,49.818 c4.303-4.474,10.212-7.047,16.418-7.151h332.8c6.215,0.097,12.135,2.671,16.444,7.151l44.023,44.049H29.133L73.182,49.818z M494.933,469.333H17.067v-358.4h477.867V469.333z"/><path d="M59.733,221.867H256c9.426,0,17.067-7.641,17.067-17.067v-51.2c0-9.426-7.641-17.067-17.067-17.067H59.733 c-9.426,0-17.067,7.641-17.067,17.067v51.2C42.667,214.226,50.308,221.867,59.733,221.867z M59.733,153.6H256v51.2H59.733V153.6z "/><path d="M51.2,324.267h8.533V435.2c0,4.713,3.82,8.533,8.533,8.533s8.533-3.82,8.533-8.533V324.267h8.533 c4.713,0,8.533-3.82,8.533-8.533s-3.821-8.533-8.533-8.533H76.8v-25.6c0-4.713-3.82-8.533-8.533-8.533s-8.533,3.821-8.533,8.533 v25.6H51.2c-4.713,0-8.533,3.82-8.533,8.533S46.487,324.267,51.2,324.267z"/><path d="M145.067,384h-8.533V281.6c0-4.713-3.82-8.533-8.533-8.533s-8.533,3.821-8.533,8.533V384h-8.533 c-4.713,0-8.533,3.82-8.533,8.533s3.82,8.533,8.533,8.533h8.533V435.2c0,4.713,3.82,8.533,8.533,8.533s8.533-3.82,8.533-8.533 v-34.133h8.533c4.713,0,8.533-3.82,8.533-8.533S149.779,384,145.067,384z"/><path d="M204.8,341.333h-8.533V281.6c0-4.713-3.82-8.533-8.533-8.533s-8.533,3.821-8.533,8.533v59.733h-8.533 c-4.713,0-8.533,3.821-8.533,8.533s3.82,8.533,8.533,8.533h8.533v76.8c0,4.713,3.82,8.533,8.533,8.533s8.533-3.82,8.533-8.533 v-76.8h8.533c4.713,0,8.533-3.82,8.533-8.533S209.513,341.333,204.8,341.333z"/><path d="M264.533,307.2H256v-25.6c0-4.713-3.82-8.533-8.533-8.533s-8.533,3.821-8.533,8.533v25.6H230.4 c-4.713,0-8.533,3.82-8.533,8.533s3.82,8.533,8.533,8.533h8.533V435.2c0,4.713,3.82,8.533,8.533,8.533S256,439.913,256,435.2 V324.267h8.533c4.713,0,8.533-3.82,8.533-8.533S269.246,307.2,264.533,307.2z"/><path d="M298.667,324.267h8.533V435.2c0,4.713,3.82,8.533,8.533,8.533s8.533-3.82,8.533-8.533V324.267h8.533 c4.713,0,8.533-3.82,8.533-8.533s-3.821-8.533-8.533-8.533h-8.533v-25.6c0-4.713-3.82-8.533-8.533-8.533 s-8.533,3.821-8.533,8.533v25.6h-8.533c-4.713,0-8.533,3.82-8.533,8.533S293.954,324.267,298.667,324.267z"/><path d="M366.933,281.6V384H358.4c-4.713,0-8.533,3.82-8.533,8.533s3.82,8.533,8.533,8.533h8.533V435.2 c0,4.713,3.82,8.533,8.533,8.533S384,439.913,384,435.2v-34.133h8.533c4.713,0,8.533-3.82,8.533-8.533S397.246,384,392.533,384 H384V281.6c0-4.713-3.82-8.533-8.533-8.533S366.933,276.887,366.933,281.6z"/><path d="M452.267,341.333h-8.533V281.6c0-4.713-3.82-8.533-8.533-8.533s-8.533,3.821-8.533,8.533v59.733h-8.533 c-4.713,0-8.533,3.821-8.533,8.533s3.82,8.533,8.533,8.533h8.533v76.8c0,4.713,3.82,8.533,8.533,8.533s8.533-3.82,8.533-8.533 v-76.8h8.533c4.713,0,8.533-3.82,8.533-8.533S456.979,341.333,452.267,341.333z"/><path d="M59.733,238.933c-4.713,0-8.533,3.82-8.533,8.533S55.021,256,59.733,256H76.8c4.713,0,8.533-3.82,8.533-8.533 s-3.82-8.533-8.533-8.533H59.733z"/><path d="M136.533,256c4.713,0,8.533-3.82,8.533-8.533s-3.82-8.533-8.533-8.533h-17.067c-4.713,0-8.533,3.82-8.533,8.533 s3.82,8.533,8.533,8.533H136.533z"/><path d="M196.267,256c4.713,0,8.533-3.82,8.533-8.533s-3.82-8.533-8.533-8.533H179.2c-4.713,0-8.533,3.82-8.533,8.533 S174.487,256,179.2,256H196.267z"/><path d="M256,256c4.713,0,8.533-3.82,8.533-8.533s-3.82-8.533-8.533-8.533h-17.067c-4.713,0-8.533,3.82-8.533,8.533 s3.82,8.533,8.533,8.533H256z"/><path d="M307.2,247.467c4.713,0,8.533-3.82,8.533-8.533s-3.82-8.533-8.533-8.533v-76.8h51.2v76.8 c-4.713,0-8.533,3.82-8.533,8.533s3.82,8.533,8.533,8.533c9.426,0,17.067-7.641,17.067-17.067v-76.8 c0-9.426-7.641-17.067-17.067-17.067h-51.2c-9.426,0-17.067,7.641-17.067,17.067v76.8 C290.133,239.826,297.774,247.467,307.2,247.467z"/><path d="M409.6,247.467c4.713,0,8.533-3.82,8.533-8.533s-3.82-8.533-8.533-8.533v-76.8h51.2v76.8 c-4.713,0-8.533,3.82-8.533,8.533s3.821,8.533,8.533,8.533c9.426,0,17.067-7.641,17.067-17.067v-76.8 c0-9.426-7.641-17.067-17.067-17.067h-51.2c-9.426,0-17.067,7.641-17.067,17.067v76.8 C392.533,239.826,400.174,247.467,409.6,247.467z"/><path d="M332.8,170.667c-4.713,0-8.533,3.82-8.533,8.533v25.6c0,4.713,3.821,8.533,8.533,8.533c4.713,0,8.533-3.82,8.533-8.533 v-25.6C341.333,174.487,337.513,170.667,332.8,170.667z"/><path d="M435.2,213.333c4.713,0,8.533-3.82,8.533-8.533v-25.6c0-4.713-3.82-8.533-8.533-8.533s-8.533,3.82-8.533,8.533v25.6 C426.667,209.513,430.487,213.333,435.2,213.333z"/></symbol></svg>