<svg xmlns="http://www.w3.org/2000/svg" style="display: none;"><symbol id="lighthouse" viewBox="0 0 512 512"><title>lighthouse</title><g> <g> <path d="M256,429c-5.52,0-10,4.48-10,10c0,5.52,4.48,10,10,10c5.52,0,10-4.48,10-10C266,433.48,261.52,429,256,429z"/> </g> </g><g> <g> <path d="M436,492h-30v-33c0-16.542-13.458-30-30-30h-10v-10c0-13.305-8.71-24.609-20.724-28.525 c-0.834-9.297-17.712-197.492-18.517-206.464C337.854,179.751,346,168.957,346,156c0-13.036-8.361-24.152-20-28.28V80h10 c5.523,0,10-4.478,10-10c0-5.522-4.477-10-10-10h-10.713C320.503,26.368,291.593,0,256,0c-35.601,0-64.504,26.372-69.287,60H176 c-5.523,0-10,4.478-10,10c0,5.522,4.477,10,10,10h10v47.703c-11.454,4.041-20,15.03-20,28.297 c0,12.751,8.001,23.663,19.243,27.998c-0.392,4.366-18.126,202.1-18.518,206.477C154.71,394.391,146,405.695,146,419v10h-10 c-16.542,0-30,13.458-30,30v33H76c-5.523,0-10,4.478-10,10c0,5.522,4.477,10,10,10h360c5.523,0,10-4.478,10-10 C446,496.478,441.523,492,436,492z M256,20c24.45,0,44.439,17.411,49.002,40h-98.003C211.56,37.412,231.553,20,256,20z M306,80v46 h-40V80H306z M206,80h40v46h-40V80z M196,146h120c5.514,0,10,4.486,10,10c0,5.521-4.479,10-10,10H196c-5.514,0-10-4.486-10-10 C186,150.479,190.479,146,196,146z M307.351,191.506l4.948,55.17l-117.883,58.942l5.412-60.346L307.351,191.506z M201.928,221.86 l3.216-35.86h68.498L201.928,221.86z M314.218,268.076l4.958,55.284L193.545,389h-6.608l5.379-59.973L314.218,268.076z M321.11,344.916L325.063,389h-88.328L321.11,344.916z M386,492H126v-33c0-5.514,4.486-10,10-10h79.58c5.523,0,10-4.478,10-10 c0-5.522-4.477-10-10-10H166v-10c0-5.514,4.486-10,10-10h19.979c0.01,0,0.019,0.002,0.029,0.002c0.011,0,0.022-0.002,0.033-0.002 h139.927c0.007,0,0.014,0.001,0.021,0.001c0.005,0,0.011-0.001,0.016-0.001c5.512,0.003,9.995,4.488,9.995,10v10h-49.58 c-5.523,0-10,4.478-10,10c0,5.522,4.477,10,10,10H376c5.514,0,10,4.486,10,10V492z"/> </g> </g><g> <g> <path d="M441.746,198.681l-68.28-28.28c-5.103-2.111-10.953,0.311-13.065,5.413c-2.113,5.102,0.31,10.952,5.412,13.065 l68.28,28.28c5.124,2.119,10.959-0.327,13.065-5.413C449.271,206.643,446.848,200.794,441.746,198.681z"/> </g> </g><g> <g> <path d="M447.159,60.254c-2.113-5.104-7.963-7.524-13.065-5.413l-68.28,28.28c-5.103,2.113-7.525,7.963-5.412,13.065 c2.11,5.093,7.95,7.53,13.065,5.413l68.28-28.28C446.849,71.206,449.272,65.356,447.159,60.254z"/> </g> </g><g> <g> <path d="M416,126h-40c-5.523,0-10,4.478-10,10c0,5.522,4.477,10,10,10h40c5.523,0,10-4.478,10-10C426,130.478,421.523,126,416,126 z"/> </g> </g><g> <g> <path d="M146.187,83.122l-68.28-28.28c-5.104-2.111-10.952,0.31-13.065,5.413c-2.113,5.103,0.31,10.952,5.412,13.065l68.28,28.28 c5.123,2.119,10.959-0.327,13.065-5.413C153.712,91.084,151.289,85.235,146.187,83.122z"/> </g> </g><g> <g> <path d="M151.598,175.814c-2.113-5.102-7.964-7.523-13.065-5.413l-68.28,28.28c-5.102,2.113-7.525,7.963-5.412,13.065 c2.11,5.095,7.952,7.529,13.065,5.413l68.28-28.28C151.289,186.766,153.711,180.916,151.598,175.814z"/> </g> </g><g> <g> <path d="M136,126H96c-5.523,0-10,4.478-10,10c0,5.522,4.477,10,10,10h40c5.523,0,10-4.478,10-10C146,130.478,141.523,126,136,126z "/> </g> </g></symbol><symbol id="notification" viewBox="0 0 512 512"><title>notification</title><g> <g> <path d="M467.819,431.851l-36.651-61.056c-16.896-28.181-25.835-60.437-25.835-93.312V224 c0-82.325-67.008-149.333-149.333-149.333S106.667,141.675,106.667,224v53.483c0,32.875-8.939,65.131-25.835,93.312 l-36.651,61.056c-1.984,3.285-2.027,7.403-0.149,10.731c1.899,3.349,5.461,5.419,9.301,5.419h405.333 c3.84,0,7.403-2.069,9.301-5.419C469.845,439.253,469.803,435.136,467.819,431.851z M72.171,426.667l26.944-44.907 C118.016,350.272,128,314.219,128,277.483V224c0-70.592,57.408-128,128-128s128,57.408,128,128v53.483 c0,36.736,9.984,72.789,28.864,104.277l26.965,44.907H72.171z"/> </g> </g><g> <g> <path d="M256,0c-23.531,0-42.667,19.136-42.667,42.667v42.667C213.333,91.221,218.112,96,224,96s10.667-4.779,10.667-10.667 V42.667c0-11.776,9.557-21.333,21.333-21.333s21.333,9.557,21.333,21.333v42.667C277.333,91.221,282.112,96,288,96 s10.667-4.779,10.667-10.667V42.667C298.667,19.136,279.531,0,256,0z"/> </g> </g><g> <g> <path d="M302.165,431.936c-3.008-5.077-9.515-6.741-14.613-3.819c-5.099,2.987-6.805,9.536-3.819,14.613 c2.773,4.715,4.288,10.368,4.288,15.936c0,17.643-14.357,32-32,32c-17.643,0-32-14.357-32-32c0-5.568,1.515-11.221,4.288-15.936 c2.965-5.099,1.259-11.627-3.819-14.613c-5.141-2.923-11.627-1.259-14.613,3.819c-4.715,8.064-7.211,17.301-7.211,26.731 C202.667,488.085,226.581,512,256,512s53.333-23.915,53.376-53.333C309.376,449.237,306.88,440,302.165,431.936z"/> </g> </g></symbol><symbol id="magnifying-glass" viewBox="0 0 451 451"><title>magnifying-glass</title><path d="M447.05,428l-109.6-109.6c29.4-33.8,47.2-77.9,47.2-126.1C384.65,86.2,298.35,0,192.35,0C86.25,0,0.05,86.3,0.05,192.3 s86.3,192.3,192.3,192.3c48.2,0,92.3-17.8,126.1-47.2L428.05,447c2.6,2.6,6.1,4,9.5,4s6.9-1.3,9.5-4 C452.25,441.8,452.25,433.2,447.05,428z M26.95,192.3c0-91.2,74.2-165.3,165.3-165.3c91.2,0,165.3,74.2,165.3,165.3 s-74.1,165.4-165.3,165.4C101.15,357.7,26.95,283.5,26.95,192.3z"/></symbol><symbol id="time" viewBox="0 0 489.6 489.6"><title>time</title><path d="m437.1,101.9v-29.1h-20.8v29.1h-37.9c-15.5-58.7-68.9-101.9-132.6-101.9s-117,43.2-132.6,101.9h-39.9v-29.1h-20.8v29.1h-52v387.7h488.6v-387.7h-52zm-192.3-80.1c64.4,3.55271e-15 116.4,52 116.4,116.4 0,56.1-88.4,198.5-116.4,243.2-39.5-61.3-116.4-192.3-116.4-243.2-2.84217e-14-64.4 52-116.4 116.4-116.4zm-223.5,100.9h31.2v42.6h20.8v-42.6h36.1c-0.5,4.8-0.8,9.6-0.8,14.6 0,23.6 12.9,59.1 30.4,96.7h-117.7v-111.3zm447,346.1h-447v-214.1h127.8c36.2,72.4 95.7,164.2 95.7,164.2s61.3-91.9 97.5-164.2h126v214.1zm0-234.9h-115.9c17.7-37.7 30.6-73.4 30.6-96.7 0-4.9-0.3-9.8-0.8-14.6h34.1v0.1 42.6h20.8v-42.6h31.2v111.2z"/><path d="m326.9,143.4c0-45.7-36.4-82.1-82.1-82.1s-82.1,36.4-82.1,82.1 37.4,82.1 82.1,82.1 82.1-36.3 82.1-82.1zm-143.4,1.1c0-34.3 28.1-61.3 61.3-61.3s61.3,27 61.3,61.3-27,61.3-61.3,61.3-61.3-27-61.3-61.3z"/><rect width="48.9" x="362.3" y="345.1" height="20.8"/><rect width="48.9" x="362.3" y="412.7" height="20.8"/><rect width="48.9" x="78.5" y="345.1" height="20.8"/><rect width="48.9" x="78.5" y="412.7" height="20.8"/></symbol><symbol id="question" viewBox="0 0 512 512"><title>question</title><g> <g> <path d="M453.708,186.943H288.512c0.569-3.022,0.869-6.105,0.869-9.245V76.216c0-27.432-22.317-49.748-49.748-49.748H49.737 C22.311,26.468,0,48.784,0,76.216v101.482c0,27.425,22.311,49.736,49.737,49.736h29.221l-1.577,36.738 c-0.142,3.315,1.577,6.432,4.457,8.079c1.367,0.782,2.886,1.171,4.405,1.171c1.679,0,3.356-0.477,4.819-1.424l68.856-44.565h8.724 c-1.802,5.611-2.786,11.585-2.786,17.786v122.676c0,32.134,26.143,58.278,58.278,58.278h25.178l55.514,56.695 c1.697,1.734,3.993,2.664,6.337,2.664c0.985,0,1.978-0.164,2.94-0.503c3.25-1.142,5.544-4.063,5.884-7.491l5.097-51.365h128.625 c32.143,0,58.292-26.144,58.292-58.278V245.22C512,213.085,485.85,186.943,453.708,186.943z M177.98,209.696h-20.683 c-1.71,0-3.383,0.494-4.819,1.424l-56.639,36.658l1.238-28.832c0.104-2.416-0.784-4.769-2.456-6.516 c-1.673-1.747-3.986-2.734-6.404-2.734H49.738c-17.645,0-32.001-14.354-32.001-31.998V76.216c0-17.651,14.356-32.01,32-32.01 h189.898c17.651,0,32.01,14.36,32.01,32.01v101.482c0,3.177-0.459,6.27-1.36,9.245h-46.152 C205.362,186.943,188.647,195.872,177.98,209.696z M494.264,367.895c0,22.354-18.193,40.541-40.555,40.541H317.05 c-4.559,0-8.376,3.456-8.826,7.994l-4.013,40.459l-44.834-45.788c-1.667-1.704-3.952-2.664-6.336-2.664h-28.906 c-22.354,0-40.541-18.187-40.541-40.541V245.22c0-22.354,18.187-40.54,40.541-40.54h229.575v-0.001 c22.362,0,40.555,18.186,40.555,40.54V367.895z"/> </g> </g><g> <g> <path d="M183.31,93.756c-1.206-19.413-16.755-34.962-36.168-36.167c-10.807-0.668-21.086,3.028-28.949,10.418 c-7.754,7.287-12.199,17.566-12.199,28.201c-0.001,4.9,3.968,8.87,8.868,8.87s8.869-3.971,8.869-8.869 c0-5.846,2.347-11.27,6.609-15.277c4.258-4.002,9.836-6.005,15.702-5.641c10.329,0.641,18.922,9.234,19.564,19.562 c0.484,7.802-3.346,15.177-9.997,19.249c-12.391,7.585-19.789,20.693-19.789,35.065c0,4.898,3.97,8.869,8.869,8.869 s8.869-3.971,8.869-8.869c0-8.149,4.229-15.601,11.312-19.937C177.135,121.723,184.202,108.129,183.31,93.756z"/> </g> </g><g> <g> <path d="M338.925,240.4c-4.899,0-8.869,3.971-8.869,8.869v75.063c0,4.898,3.971,8.869,8.869,8.869 c4.899,0,8.869-3.971,8.869-8.869v-75.063C347.793,244.371,343.824,240.4,338.925,240.4z"/> </g> </g><g> <g> <circle cx="338.916" cy="364.068" r="8.869"/> </g> </g><g> <g> <circle cx="144.679" cy="182.046" r="8.869"/> </g> </g></symbol><symbol id="house" viewBox="0 0 512 512"><title>house</title><path d="M135.91,462.046c-3.465-20.062-21.001-35.379-42.044-35.379c-16.802,0-31.36,9.762-38.315,23.91 c-1.374-0.981-2.842-1.852-4.352-2.637V307.2c0-4.71-3.823-8.533-8.533-8.533c-4.71,0-8.533,3.823-8.533,8.533v136.533 C15.309,443.733,0,459.042,0,477.867S15.309,512,34.133,512H128c14.114,0,25.6-11.486,25.6-25.6 C153.6,475.042,146.167,465.391,135.91,462.046z M128,494.933H34.133c-9.412,0-17.067-7.654-17.067-17.067 S24.721,460.8,34.133,460.8c7.962,0,15.036,4.625,17.604,11.52c1.442,3.866,5.436,6.144,9.515,5.41 c4.062-0.734,7.014-4.267,7.014-8.397c0-14.114,11.486-25.6,25.6-25.6s25.6,11.486,25.6,25.6c0,4.71,3.823,8.533,8.533,8.533 c4.702,0,8.533,3.831,8.533,8.533S132.702,494.933,128,494.933z"/><path d="M503.467,68.267H341.333c-4.71,0-8.533,3.823-8.533,8.533s3.823,8.533,8.533,8.533h153.6v184.201l-232.9-232.9 c-1.673-1.673-3.866-2.5-6.059-2.5s-4.386,0.828-6.059,2.5L17.067,269.525V85.333h93.867c4.71,0,8.533-3.823,8.533-8.533V42.667 c0-4.71-3.823-8.533-8.533-8.533H102.4V17.067h51.2v17.067h-8.533c-4.71,0-8.533,3.823-8.533,8.533V76.8 c0,4.71,3.823,8.533,8.533,8.533h25.6c4.71,0,8.533-3.823,8.533-8.533s-3.823-8.533-8.533-8.533H153.6V51.2h8.533 c4.71,0,8.533-3.823,8.533-8.533V8.533c0-4.71-3.823-8.533-8.533-8.533H93.867c-4.71,0-8.533,3.823-8.533,8.533v34.133 c0,4.71,3.823,8.533,8.533,8.533h8.533v17.067H8.533c-2.261,0-4.437,0.896-6.033,2.5C0.896,72.363,0,74.539,0,76.8l0.034,213.333 c0,3.456,2.082,6.562,5.274,7.885c1.058,0.435,2.159,0.649,3.26,0.649c2.227,0,4.412-0.87,6.033-2.5L255.974,54.707 l241.459,241.459c1.63,1.63,3.814,2.5,6.033,2.5c1.101,0,2.21-0.213,3.268-0.649c3.183-1.323,5.265-4.437,5.265-7.885V76.8 C512,72.09,508.177,68.267,503.467,68.267z"/><path d="M477.867,443.733V307.2c0-4.71-3.823-8.533-8.533-8.533s-8.533,3.823-8.533,8.533v140.74 c-1.51,0.785-2.978,1.655-4.352,2.637c-6.955-14.148-21.513-23.91-38.315-23.91c-21.043,0-38.579,15.317-42.044,35.379 c-10.257,3.345-17.69,12.996-17.69,24.354c0,3.012,0.614,5.854,1.579,8.533H213.333c-4.71,0-8.533,3.823-8.533,8.533 s3.823,8.533,8.533,8.533H384h34.133h59.733C496.691,512,512,496.691,512,477.867S496.691,443.733,477.867,443.733z M477.867,494.933h-59.733H384c-4.702,0-8.533-3.831-8.533-8.533s3.831-8.533,8.533-8.533c4.71,0,8.533-3.823,8.533-8.533 c0-14.114,11.486-25.6,25.6-25.6s25.6,11.486,25.6,25.6c0,4.13,2.953,7.663,7.014,8.397c4.053,0.742,8.073-1.545,9.515-5.41 c2.568-6.895,9.643-11.52,17.604-11.52c9.412,0,17.067,7.654,17.067,17.067S487.279,494.933,477.867,494.933z"/><path d="M290.133,170.667c0-18.825-15.309-34.133-34.133-34.133c-18.825,0-34.133,15.309-34.133,34.133S237.175,204.8,256,204.8 C274.825,204.8,290.133,189.491,290.133,170.667z M238.933,170.667c0-9.412,7.654-17.067,17.067-17.067 c9.412,0,17.067,7.654,17.067,17.067c0,9.412-7.654,17.067-17.067,17.067C246.588,187.733,238.933,180.079,238.933,170.667z"/><path d="M418.133,290.133h-68.267c-4.71,0-8.533,3.823-8.533,8.533v93.867H332.8c-4.71,0-8.533,3.823-8.533,8.533 s3.823,8.533,8.533,8.533h102.4c4.71,0,8.533-3.823,8.533-8.533s-3.823-8.533-8.533-8.533h-8.533v-93.867 C426.667,293.956,422.844,290.133,418.133,290.133z M409.6,392.533h-51.2V358.4h51.2V392.533z M409.6,341.333h-51.2V307.2h51.2 V341.333z"/><path d="M341.333,469.333c0-4.71-3.823-8.533-8.533-8.533h-25.6V298.667c0-4.71-3.823-8.533-8.533-8.533h-85.333 c-4.71,0-8.533,3.823-8.533,8.533V460.8h-25.6c-4.71,0-8.533,3.823-8.533,8.533v34.133c0,4.71,3.823,8.533,8.533,8.533 s8.533-3.823,8.533-8.533v-25.6H332.8C337.51,477.867,341.333,474.044,341.333,469.333z M290.133,375.467H281.6 c-4.71,0-8.533,3.823-8.533,8.533s3.823,8.533,8.533,8.533h8.533V460.8h-68.267V307.2h68.267V375.467z"/><path d="M162.133,290.133H93.867c-4.71,0-8.533,3.823-8.533,8.533v93.867H76.8c-4.71,0-8.533,3.823-8.533,8.533 S72.09,409.6,76.8,409.6h102.4c4.71,0,8.533-3.823,8.533-8.533s-3.823-8.533-8.533-8.533h-8.533v-93.867 C170.667,293.956,166.844,290.133,162.133,290.133z M153.6,392.533h-51.2V358.4h51.2V392.533z M153.6,341.333h-51.2V307.2h51.2 V341.333z"/></symbol><symbol id="team" viewBox="0 0 512 512"><title>team</title><path d="M454.889,430.401l-8.412-3.373C488.78,379.97,512,319.526,512,256c0-51.971-15.712-101.977-44.339-144.014 c-0.347-0.683-0.777-1.298-1.277-1.835c-12.541-18.075-27.47-34.653-44.602-49.226c-3.401-2.893-8.502-2.481-11.395,0.92 c-2.893,3.401-2.481,8.504,0.919,11.396c13.744,11.691,25.977,24.759,36.589,38.902c-17.112,6.688-37.652,12.352-60.582,16.827 c-6.33-18.86-14.11-36.444-23.256-52.309c-12.327-21.385-26.506-38.605-41.959-51.27c24.051,6.876,46.962,17.53,67.987,31.733 c3.7,2.497,8.724,1.526,11.224-2.174c2.499-3.699,1.526-8.724-2.174-11.224C356.796,15.12,307.3,0,256,0 C187.619,0,123.333,26.628,74.982,74.982C26.628,123.333,0,187.621,0,256c0,63.608,23.252,124.06,65.624,171.135l-8.306,3.253 c-3.059,1.105-29.07,11.48-29.07,44.553v28.967c0,4.466,3.618,8.092,8.084,8.092h46.504h7.239h8.623h41.362h15.266 c0.39,0,0.771-0.037,1.146-0.091c0.376,0.054,0.756,0.091,1.146,0.091h32.894c4.466,0,8.084-3.618,8.084-8.084 c0-4.466-3.619-8.084-8.084-8.084h-24.81v-28.155c0-29.704,23.332-38.248,24.274-38.58c0.125-0.042,0.249-0.087,0.373-0.136 l39.368-15.418c0.085,0.092,0.165,0.188,0.255,0.276l20.922,20.378c1.511,1.47,3.536,2.293,5.641,2.293 c0.042,0,0.085,0,0.127-0.001c2.151-0.033,4.202-0.924,5.693-2.474l20.089-20.844l39.315,15.766 c0.143,0.058,0.237,0.094,0.383,0.142c0.993,0.349,24.328,8.896,24.328,38.598v28.155H287.34h-62.511h-9.051 c-4.466,0-8.084,3.619-8.084,8.084c0,4.466,3.619,8.084,8.084,8.084h9.051h62.511h67.215h0.001h0.001h10.314h7.238h8.625h41.36 h53.745c4.466,0,8.084-3.676,8.084-8.141v-28.918C483.925,441.995,458.11,431.572,454.889,430.401z M430.428,420.592l-7.969-3.196 v-4.6c8.807-5.165,15.576-13.438,18.792-23.306c11.761-0.929,21.051-10.776,21.051-22.771c0-7.134-3.288-13.51-8.423-17.708 v-14.368c0-27.702-20.788-50.625-47.58-54.027c0.305-5.481,0.516-11.003,0.618-16.532h88.765 C493.739,322.601,470.753,377.874,430.428,420.592z M401.242,402.393h-7.373c-14.285,0-25.906-11.621-25.906-25.904v-21.39h0 c10.531-1.143,29.184-4.824,43.555-16.826c3.219,5.521,8.2,11.492,15.63,14.979v23.236 C427.147,390.772,415.526,402.393,401.242,402.393z M406.292,418.247v4.482l-9.008,9.346l-8.464-8.243v-5.586 c1.657,0.199,3.34,0.314,5.05,0.314h7.373C402.953,418.561,404.634,418.446,406.292,418.247z M359.905,339.456 c-0.009,0-0.018,0-0.027,0c-0.278,0-0.554,0.015-0.825,0.042c-0.087,0.009-0.172,0.027-0.259,0.039 c-0.182,0.024-0.364,0.046-0.542,0.083c-0.122,0.024-0.239,0.061-0.359,0.092c-0.139,0.035-0.279,0.065-0.414,0.107 c-0.088,0.027-0.171,0.064-0.258,0.094v-5.269c0-21.126,17.187-38.312,38.313-38.312h3.866c21.125,0,38.309,17.186,38.309,38.312 v5.203c-0.152-0.049-0.306-0.087-0.462-0.126c-0.074-0.021-0.148-0.045-0.223-0.064c-11.27-2.563-14.956-17.604-14.983-17.718 c-0.701-3.098-3.152-5.498-6.265-6.134c-3.113-0.638-6.308,0.608-8.17,3.182C392.967,339.224,360.333,339.456,359.905,339.456z M443.315,372.167v-10.894c1.702,1.215,2.818,3.202,2.818,5.448S445.017,370.952,443.315,372.167z M457.383,125.748 c23.417,36.176,36.826,78.29,38.297,122.167h-88.767c-0.656-36.389-5.741-71.486-14.808-103.449 C416.96,139.529,439.121,133.22,457.383,125.748z M390.743,247.917h-82.741c-0.009-0.001-0.017,0-0.025,0 c-11.029-12.192-26.533-20.247-43.893-21.587v-69.52c39.671-0.395,77.954-3.694,112.062-9.427 C385.071,178.295,390.08,212.429,390.743,247.917z M319.43,332.335c0,4.755-3.212,8.764-7.579,9.997v-19.997 C316.218,323.57,319.43,327.58,319.43,332.335z M264.084,16.617c32.171,3.436,62.439,27.306,85.965,68.118 c8.256,14.321,15.345,30.143,21.189,47.115c-32.594,5.337-69.173,8.409-107.155,8.79V16.617z M258.957,242.28 c27.537,0,49.939,22.404,49.939,49.942v9.879c-0.054-0.043-0.111-0.081-0.166-0.124c-0.117-0.092-0.236-0.182-0.359-0.267 c-0.095-0.066-0.193-0.127-0.291-0.189c-0.121-0.077-0.241-0.153-0.367-0.223c-0.115-0.065-0.234-0.122-0.352-0.181 c-0.113-0.056-0.225-0.113-0.341-0.165c-0.142-0.063-0.289-0.115-0.434-0.17c-0.101-0.038-0.201-0.077-0.303-0.111 c-0.163-0.054-0.331-0.097-0.498-0.14c-0.074-0.021-0.147-0.046-0.223-0.064c-15.357-3.492-20.222-23.515-20.263-23.689 c-0.701-3.098-3.152-5.498-6.265-6.134c-3.112-0.64-6.308,0.608-8.17,3.182c-18.931,26.172-60.75,26.44-61.302,26.44 c-0.001,0-0.002,0-0.002,0c-0.011,0-0.019,0-0.029,0c-0.278,0-0.554,0.014-0.825,0.041c-0.085,0.01-0.167,0.027-0.252,0.039 c-0.183,0.025-0.369,0.047-0.549,0.083c-0.115,0.024-0.227,0.06-0.342,0.088c-0.144,0.036-0.291,0.068-0.431,0.111 c-0.131,0.041-0.257,0.094-0.385,0.141c-0.117,0.043-0.239,0.081-0.355,0.129c-0.148,0.063-0.289,0.137-0.43,0.206 c-0.092,0.045-0.185,0.084-0.275,0.133c-0.146,0.078-0.282,0.168-0.422,0.254c-0.08,0.051-0.164,0.096-0.244,0.149 c-0.13,0.088-0.253,0.186-0.379,0.282c-0.081,0.061-0.165,0.117-0.244,0.182c-0.074,0.061-0.143,0.13-0.216,0.194v-10.077 c0-27.538,22.402-49.941,49.939-49.941H258.957z M121.257,247.916c0.663-35.494,5.674-69.635,14.601-100.55 c34.156,5.741,72.48,9.047,112.058,9.445v69.602c-16.947,1.587-32.054,9.589-42.859,21.557c-0.294-0.032-0.593-0.053-0.896-0.053 H121.257z M201.447,322.252v20.166c-4.533-1.121-7.906-5.209-7.906-10.083C193.54,327.462,196.914,323.374,201.447,322.252z M247.916,16.617v124.023c-37.892-0.384-74.5-3.468-107.146-8.815c5.843-16.962,12.929-32.774,21.181-47.09 C185.477,43.923,215.745,20.053,247.916,16.617z M189.813,25.462c-15.418,12.66-29.567,29.853-41.871,51.198 c-9.143,15.861-16.92,33.437-23.249,52.292c-22.901-4.469-43.408-10.12-60.488-16.782 C95.167,70.985,139.067,40.054,189.813,25.462z M54.69,125.786c18.216,7.444,40.381,13.729,65.212,18.661 c-9.073,31.967-14.158,67.072-14.816,103.469H16.32C17.815,203.01,31.71,161.193,54.69,125.786z M106.783,418.248 c1.657,0.199,3.34,0.313,5.05,0.313h7.374c1.708,0,3.391-0.114,5.047-0.314v4.481l-9.006,9.346l-8.465-8.243V418.248z M119.207,402.393h-7.374c-14.285,0-25.906-11.621-25.906-25.905v-21.38c10.529-1.139,29.175-4.826,43.555-16.835 c3.22,5.522,8.2,11.494,15.629,14.981v23.235C145.11,390.772,133.49,402.393,119.207,402.393z M140.008,321.938 c-0.701-3.098-3.152-5.498-6.265-6.134c-3.113-0.638-6.309,0.608-8.169,3.182c-14.65,20.249-47.31,20.471-47.704,20.471 c-0.01,0-0.018,0-0.027,0c-0.278,0-0.554,0.014-0.825,0.041c-0.085,0.01-0.167,0.027-0.252,0.039 c-0.183,0.024-0.369,0.047-0.549,0.083c-0.115,0.024-0.227,0.06-0.342,0.088c-0.144,0.036-0.29,0.068-0.431,0.111 c-0.087,0.027-0.169,0.064-0.255,0.094v-5.269c0-21.126,17.186-38.313,38.312-38.313h3.867c21.125,0,38.309,17.187,38.309,38.313 v5.204h-0.002c-0.155-0.051-0.316-0.089-0.474-0.13c-0.071-0.018-0.14-0.043-0.212-0.06 C143.721,337.095,140.035,322.051,140.008,321.938z M16.319,264.084h88.765c0.101,5.568,0.316,11.129,0.623,16.645 c-26.361,3.791-46.689,26.519-46.689,53.914v14.305c-5.185,4.196-8.51,10.6-8.51,17.771c0,12.084,9.433,21.983,21.32,22.785 c3.216,9.862,9.982,18.128,18.786,23.292v4.553l-8.831,3.458C41.322,378.056,18.263,322.727,16.319,264.084z M69.757,361.093 v11.252c-1.85-1.192-3.081-3.266-3.081-5.624C66.676,364.361,67.907,362.287,69.757,361.093z M149.532,467.678v28.154h-9.474 H98.697h-8.623h-7.238H44.417v-20.891c0-22.539,17.62-29.071,18.305-29.314c0.125-0.042,0.25-0.087,0.373-0.136l30.491-11.941 l16.202,15.78c1.51,1.471,3.534,2.293,5.64,2.293c0.042,0,0.085,0,0.128-0.001c2.151-0.033,4.201-0.924,5.692-2.474l15.304-15.882 l18.917,7.585C151.882,448.192,149.532,457.083,149.532,467.678z M227.53,397.036l-42.908,16.803 c-5.464,1.88-13.026,6.217-19.734,13.369l-24.467-9.812v-4.598c8.809-5.166,15.577-13.439,18.793-23.308 c11.762-0.929,21.053-10.776,21.053-22.771c0-7.134-3.289-13.51-8.424-17.708v-14.368c0-28.519-22.03-51.974-49.963-54.279 c-0.308-5.393-0.521-10.833-0.624-16.281h73.06c-4.036,8.543-6.304,18.078-6.304,28.137v18.864 c-6.457,4.851-10.642,12.57-10.642,21.251c0,14.51,11.697,26.334,26.157,26.556c3.794,12.814,12.533,23.52,24.001,29.899V397.036z M161.279,372.168V361.27c1.703,1.216,2.82,3.203,2.82,5.45S162.982,370.953,161.279,372.168z M269.601,402.678 c0,0.011,0,0.022,0,0.03v0.49l-13.246,13.745l-12.657-12.328v-10.172c2.715,0.453,5.499,0.7,8.342,0.7h9.222 c2.841,0,5.624-0.247,8.339-0.698V402.678z M261.262,378.976h-9.222c-18.982,0-34.425-15.442-34.425-34.424v-28.542 c12.902-1.188,38.414-5.673,57.049-22.402c3.933,7.443,10.526,16.084,21.02,20.566v30.377 C295.683,363.534,280.242,378.976,261.262,378.976z M347.334,427.263c-6.707-7.17-14.278-11.522-19.754-13.412l-41.812-16.769 v-8.292c11.471-6.38,20.208-17.089,24.001-29.907c14.307-0.396,25.827-12.149,25.827-26.547c0-8.631-4.14-16.311-10.534-21.167 v-18.948c0-10.058-2.267-19.594-6.304-28.137h71.983c-0.105,5.47-0.319,10.932-0.631,16.351 c-27.506,2.729-49.06,25.998-49.06,54.208v14.307c-5.184,4.195-8.508,10.599-8.508,17.77c0,12.085,9.433,21.984,21.32,22.785 c3.216,9.862,9.983,18.128,18.787,23.292v4.553L347.334,427.263z M351.795,361.093v11.252c-1.851-1.192-3.081-3.266-3.081-5.624 C348.714,364.361,349.945,362.286,351.795,361.093z M467.757,495.832h-45.661h-41.36h-8.625h-7.238h-2.232v-28.155 c0-10.552-2.329-19.413-5.893-26.736l18.876-7.392l16.2,15.78c1.51,1.471,3.534,2.294,5.641,2.294c0.042,0,0.085,0,0.127-0.001 c2.151-0.033,4.201-0.924,5.693-2.474l15.305-15.882l30.426,12.2c0.142,0.058,0.221,0.088,0.368,0.138 c0.75,0.266,18.374,6.799,18.374,29.338V495.832z"/></symbol><symbol id="family-room" viewBox="0 0 412.053 412.053"><title>family-room</title><path id="XMLID_173_" d="M396.399,67.735c-2.731-14.978-9.574-28.905-19.791-40.284c-0.02-0.022-0.039-0.045-0.059-0.067 c-5.233-5.909-13.905-14.033-25.497-19.181l-0.264-0.117C339.6,2.72,327.594,0,315.105,0c-18.47,0-35.94,5.962-50.522,17.243 c-0.014,0.011-0.08,0.063-0.098,0.076c-12.536,9.789-20.809,23.777-21.833,25.559h0c-0.046,0.078-0.091,0.157-0.134,0.236 c-6.577,12.058-10.053,25.726-10.053,39.527c0,2.866,0.15,5.767,0.448,8.621c0.277,2.667,1.873,5.017,4.248,6.26 c1.504,0.787,3.076,1.442,4.691,1.96c6.438,19.706,20.499,35.466,38.375,44.329c-7.663,3.914-14.545,9.089-20.498,15.418 c-3.027,3.218-2.872,8.281,0.347,11.308c3.218,3.026,8.281,2.871,11.308-0.347c2.861-3.042,5.992-5.744,9.369-8.088 c4.843,13.721,17.325,23.773,31.522,23.773h1.194c14.221,0,26.691-10.773,31.248-25.35c16.893,10.59,27.701,29.458,27.701,49.641 v83.099l-72.764,47.215c-3.707,2.405-4.762,7.359-2.356,11.065c1.532,2.361,4.099,3.646,6.718,3.646c1.493,0,3.002-0.417,4.347-1.29 l76.409-49.58c2.273-1.475,3.646-4.001,3.646-6.711v-87.444c0-28.331-15.816-53.725-40.812-66.396 c23.671-11.814,40.41-35.658,42.05-63.429c2.258-2.047,4.221-4.452,5.791-7.157C396.404,71.54,396.741,69.607,396.399,67.735z M313.47,169.876h-1.194c-9.574,0-17.663-9.28-17.663-20.265c0-0.137-0.003-0.273-0.01-0.409c6.203,1.631,12.691,2.494,19.344,2.494 c5.686,0,11.235-0.634,16.572-1.835C329.893,160.677,322.195,169.876,313.47,169.876z M313.946,135.696 c-24.123,0-45.512-14.37-54.882-35.91c11.108-3.142,19.605-12.566,21.397-24.173c4.773,0.613,9.61,0.922,14.463,0.922 c16.272,0,31.948-3.411,45.987-9.943c3.618,12.425,15.11,21.531,28.688,21.531c0.99,0,1.974-0.05,2.949-0.148 C366.907,115.155,342.701,135.696,313.946,135.696z M369.599,72.124c-7.649,0-13.872-6.221-13.872-13.869v-4.452 c0-2.911-1.581-5.592-4.129-7.001c-2.549-1.41-5.661-1.323-8.125,0.226c-14.077,8.837-30.865,13.508-48.55,13.508 c-6.916,0-13.786-0.729-20.419-2.167c-2.363-0.513-4.833,0.072-6.717,1.591c-1.883,1.519-2.978,3.808-2.978,6.227v4.853 c0,7.647-6.222,13.869-13.87,13.869c-0.524,0-1.042-0.029-1.554-0.086c-0.119-0.018-0.238-0.033-0.357-0.045 c-0.179-0.024-0.356-0.053-0.533-0.084c-0.021-0.686-0.032-1.37-0.032-2.052c0-11.1,2.785-22.088,8.055-31.783 c0.021-0.039,0.043-0.077,0.06-0.106c0.068-0.123,7.294-12.65,17.741-20.813c0.021-0.017,0.048-0.037,0.053-0.041 C286.126,20.806,300.211,16,315.105,16c10.075,0,19.753,2.191,28.764,6.512c0.156,0.075,0.387,0.18,0.689,0.313 c8.897,3.952,15.728,10.348,19.918,15.059c0.046,0.054,0.093,0.107,0.141,0.161c7.55,8.377,12.826,18.469,15.374,29.354 C377.374,70.363,373.59,72.124,369.599,72.124z M245.81,276.808c18.128-10.667,30.322-30.386,30.322-52.897 c0-10.13-2.47-19.696-6.837-28.125c-0.157-0.354-0.336-0.691-0.536-1.011c-10.386-19.154-30.676-32.191-53.954-32.191 c-23.283,0-43.577,13.041-53.96,32.204c-0.194,0.312-0.369,0.641-0.522,0.985c-4.373,8.432-6.844,18.002-6.844,28.138 c0,22.507,12.188,42.222,30.311,52.89c-22.433,11.597-36.643,34.617-36.643,60.093v29.178c0,2.735,1.397,5.28,3.704,6.749 l59.659,37.98c1.311,0.834,2.803,1.251,4.296,1.251c1.484,0,2.968-0.412,4.273-1.237l59.8-37.781 c2.332-1.473,3.74-4.043,3.727-6.801l-0.141-29.377C282.343,311.32,268.148,288.376,245.81,276.808z M214.805,178.584 c13.925,0,26.401,6.31,34.723,16.222c-10.78,3.089-22.602,4.7-34.721,4.7c-12.123,0-23.946-1.611-34.725-4.7 C188.404,184.894,200.881,178.584,214.805,178.584z M169.478,223.911c0-5.197,0.879-10.194,2.497-14.847 c13.201,4.228,27.85,6.442,42.832,6.442c14.978,0,29.625-2.214,42.828-6.442c1.618,4.653,2.497,9.65,2.497,14.847 c0,24.993-20.333,45.327-45.327,45.327C189.812,269.238,169.478,248.904,169.478,223.911z M229.005,283.579 c-1,7.568-7.638,12.684-13.644,12.684h-0.974c-6.361,0-13.425-5.38-14.34-12.82c4.728,1.172,9.672,1.795,14.757,1.795 C219.69,285.238,224.446,284.663,229.005,283.579z M214.822,394.58l-51.676-32.898v-24.787c0-17.591,8.888-33.653,23.275-43.119 c4.999,11.407,16.783,18.487,27.966,18.487h0.974c12.073,0,22.745-7.857,27.355-18.773c14.595,9.41,23.663,25.598,23.748,43.443 l0.12,24.944L214.822,394.58z M157.359,179.842c2.332-3.753,1.18-8.686-2.572-11.018c-2.436-1.514-4.962-2.887-7.554-4.109 c9.886-5.054,18.631-12.293,25.573-21.348c2.859,0.992,5.928,1.532,9.12,1.532c15.373,0,27.88-12.507,27.88-27.88V97.138 c0-25.272-9.654-49.207-27.183-67.394C165.144,11.61,141.678,1.076,116.548,0.082c-0.002,0-0.005,0-0.007,0 c-2.184-0.084-4.217-0.104-6.216-0.055c-25.018,0.604-48.617,10.73-66.45,28.512c-18.283,18.23-28.352,42.593-28.352,68.6v19.881 c0,15.373,12.507,27.88,27.881,27.88c3.192,0,6.26-0.539,9.118-1.531c7.647,9.974,17.483,17.745,28.622,22.819 c-24.685,12.982-39.953,38.112-39.953,65.94v65.484c0,2.71,1.372,5.236,3.646,6.711l72.575,47.091 c1.345,0.873,2.854,1.29,4.347,1.29c2.619,0,5.187-1.286,6.718-3.646c2.405-3.707,1.35-8.661-2.356-11.065l-68.93-44.726v-61.139 c0-18.51,8.619-35.505,23.058-46.472c4.952,14.37,17.668,25.167,31.728,25.167h1.194c15.27,0,27.458-13.822,31.75-29.264 c0.477,0.278,0.95,0.563,1.419,0.854C150.094,184.747,155.027,183.594,157.359,179.842z M63.19,68.063 c-5.172,8.784-7.906,18.838-7.906,29.076v19.881c0,3.79-1.784,7.171-4.557,9.348c-0.238,0.155-0.465,0.321-0.681,0.497 c-1.897,1.285-4.184,2.035-6.643,2.035c-6.551,0-11.88-5.329-11.88-11.88V97.138c0-44.413,34.784-80.043,79.185-81.117 c1.66-0.041,3.365-0.023,5.213,0.048c43.673,1.731,77.884,37.34,77.884,81.069v19.881c0,6.551-5.33,11.88-11.881,11.88 c-2.459,0-4.747-0.751-6.645-2.036c-0.215-0.175-0.441-0.34-0.678-0.495c-2.773-2.177-4.558-5.559-4.558-9.349V97.138 c0-28.238-21.036-52.64-48.932-56.761c-2.193-0.326-4.422,0.276-6.155,1.658c-1.733,1.382-2.816,3.42-2.99,5.63 c-0.439,5.592-1.453,11.106-3.022,16.457H70.083C67.25,64.122,64.627,65.621,63.19,68.063z M113.171,194.823h-1.194 c-9.044,0-17.921-10.979-17.921-22.166c0-0.69-0.089-1.369-0.259-2.02c6.076,1.545,12.403,2.35,18.868,2.35 c6.12,0,12.118-0.722,17.895-2.109C130.016,182.511,121.212,194.823,113.171,194.823z M112.665,156.987 c-18.646,0-35.855-8.489-47.161-22.99c3.622-4.705,5.779-10.595,5.779-16.978V97.138c0-5.893,1.254-11.698,3.652-17.016h39.783 c3.349,0,6.343-2.085,7.504-5.227c2-5.41,3.509-10.991,4.513-16.675c16.017,5.83,27.309,21.343,27.309,38.918v19.881 c0,6.383,2.157,12.273,5.78,16.978C148.519,148.499,131.311,156.987,112.665,156.987z"/></symbol></svg>